<?xml version="1.0" encoding="UTF-8"?>
<svg width="800" height="400" viewBox="0 0 800 400" fill="none" xmlns="http://www.w3.org/2000/svg">
  <!-- Background Elements -->
  <circle cx="400" cy="200" r="180" fill="url(#gradient1)" opacity="0.1"/>
  <circle cx="400" cy="200" r="150" fill="url(#gradient2)" opacity="0.1"/>
  
  <!-- Main Diagram -->
  <rect x="200" y="100" width="400" height="200" rx="12" fill="white" stroke="#E5E7EB" stroke-width="2"/>
  
  <!-- Center Circle -->
  <circle cx="400" cy="200" r="50" fill="url(#gradient3)"/>
  <circle cx="400" cy="200" r="40" fill="white"/>
  <circle cx="400" cy="200" r="30" fill="url(#gradient4)"/>
  
  <!-- Connecting Lines -->
  <line x1="400" y1="150" x2="400" y2="100" stroke="#E5E7EB" stroke-width="2"/>
  <line x1="400" y1="250" x2="400" y2="300" stroke="#E5E7EB" stroke-width="2"/>
  <line x1="350" y1="200" x2="200" y2="200" stroke="#E5E7EB" stroke-width="2"/>
  <line x1="450" y1="200" x2="600" y2="200" stroke="#E5E7EB" stroke-width="2"/>
  
  <!-- Outer Elements -->
  <rect x="350" y="80" width="100" height="40" rx="8" fill="#F3F4F6"/>
  <rect x="365" y="95" width="70" height="10" rx="2" fill="#9CA3AF"/>
  
  <rect x="350" y="280" width="100" height="40" rx="8" fill="#F3F4F6"/>
  <rect x="365" y="295" width="70" height="10" rx="2" fill="#9CA3AF"/>
  
  <rect x="120" y="180" width="100" height="40" rx="8" fill="#F3F4F6"/>
  <rect x="135" y="195" width="70" height="10" rx="2" fill="#9CA3AF"/>
  
  <rect x="580" y="180" width="100" height="40" rx="8" fill="#F3F4F6"/>
  <rect x="595" y="195" width="70" height="10" rx="2" fill="#9CA3AF"/>
  
  <!-- Connection Points -->
  <circle cx="400" cy="100" r="8" fill="#3B82F6"/>
  <circle cx="400" cy="300" r="8" fill="#3B82F6"/>
  <circle cx="200" cy="200" r="8" fill="#3B82F6"/>
  <circle cx="600" cy="200" r="8" fill="#3B82F6"/>
  
  <!-- Decorative Elements -->
  <circle cx="100" cy="100" r="20" fill="url(#gradient5)" opacity="0.2"/>
  <circle cx="700" cy="300" r="30" fill="url(#gradient6)" opacity="0.2"/>
  
  <!-- Floating Icons -->
  <circle cx="200" cy="150" r="15" fill="url(#gradient7)" opacity="0.1"/>
  <circle cx="600" cy="250" r="15" fill="url(#gradient8)" opacity="0.1"/>
  <circle cx="250" cy="250" r="15" fill="url(#gradient9)" opacity="0.1"/>
  <circle cx="550" cy="150" r="15" fill="url(#gradient10)" opacity="0.1"/>
  
  <!-- Connection Arrows -->
  <path d="M400 110 L400 90" stroke="#3B82F6" stroke-width="2" marker-end="url(#arrowhead)"/>
  <path d="M400 290 L400 310" stroke="#3B82F6" stroke-width="2" marker-end="url(#arrowhead)"/>
  <path d="M210 200 L190 200" stroke="#3B82F6" stroke-width="2" marker-end="url(#arrowhead)"/>
  <path d="M590 200 L610 200" stroke="#3B82F6" stroke-width="2" marker-end="url(#arrowhead)"/>
  
  <!-- Gradients -->
  <defs>
    <linearGradient id="gradient1" x1="0" y1="0" x2="800" y2="400" gradientUnits="userSpaceOnUse">
      <stop offset="0%" stop-color="#3B82F6"/>
      <stop offset="100%" stop-color="#60A5FA"/>
    </linearGradient>
    <linearGradient id="gradient2" x1="0" y1="0" x2="800" y2="400" gradientUnits="userSpaceOnUse">
      <stop offset="0%" stop-color="#60A5FA"/>
      <stop offset="100%" stop-color="#93C5FD"/>
    </linearGradient>
    <linearGradient id="gradient3" x1="0" y1="0" x2="100" y2="100" gradientUnits="userSpaceOnUse">
      <stop offset="0%" stop-color="#3B82F6"/>
      <stop offset="100%" stop-color="#60A5FA"/>
    </linearGradient>
    <linearGradient id="gradient4" x1="0" y1="0" x2="60" y2="60" gradientUnits="userSpaceOnUse">
      <stop offset="0%" stop-color="#60A5FA"/>
      <stop offset="100%" stop-color="#93C5FD"/>
    </linearGradient>
    <linearGradient id="gradient5" x1="0" y1="0" x2="40" y2="40" gradientUnits="userSpaceOnUse">
      <stop offset="0%" stop-color="#3B82F6"/>
      <stop offset="100%" stop-color="#60A5FA"/>
    </linearGradient>
    <linearGradient id="gradient6" x1="0" y1="0" x2="60" y2="60" gradientUnits="userSpaceOnUse">
      <stop offset="0%" stop-color="#60A5FA"/>
      <stop offset="100%" stop-color="#93C5FD"/>
    </linearGradient>
    <linearGradient id="gradient7" x1="0" y1="0" x2="30" y2="30" gradientUnits="userSpaceOnUse">
      <stop offset="0%" stop-color="#3B82F6"/>
      <stop offset="100%" stop-color="#60A5FA"/>
    </linearGradient>
    <linearGradient id="gradient8" x1="0" y1="0" x2="30" y2="30" gradientUnits="userSpaceOnUse">
      <stop offset="0%" stop-color="#60A5FA"/>
      <stop offset="100%" stop-color="#93C5FD"/>
    </linearGradient>
    <linearGradient id="gradient9" x1="0" y1="0" x2="30" y2="30" gradientUnits="userSpaceOnUse">
      <stop offset="0%" stop-color="#3B82F6"/>
      <stop offset="100%" stop-color="#60A5FA"/>
    </linearGradient>
    <linearGradient id="gradient10" x1="0" y1="0" x2="30" y2="30" gradientUnits="userSpaceOnUse">
      <stop offset="0%" stop-color="#60A5FA"/>
      <stop offset="100%" stop-color="#93C5FD"/>
    </linearGradient>
    
    <!-- Arrow Marker -->
    <marker id="arrowhead" markerWidth="10" markerHeight="7" refX="9" refY="3.5" orient="auto">
      <polygon points="0 0, 10 3.5, 0 7" fill="#3B82F6"/>
    </marker>
  </defs>
</svg> 