<?xml version="1.0" encoding="UTF-8"?>
<svg width="800" height="400" viewBox="0 0 800 400" fill="none" xmlns="http://www.w3.org/2000/svg">
  <!-- Background Elements -->
  <circle cx="400" cy="200" r="180" fill="url(#gradient1)" opacity="0.1"/>
  <circle cx="400" cy="200" r="150" fill="url(#gradient2)" opacity="0.1"/>
  
  <!-- Design Canvas -->
  <rect x="150" y="100" width="500" height="200" rx="12" fill="white" stroke="#E5E7EB" stroke-width="2"/>
  
  <!-- Color Palette -->
  <rect x="170" y="120" width="40" height="40" rx="8" fill="#3B82F6"/>
  <rect x="220" y="120" width="40" height="40" rx="8" fill="#60A5FA"/>
  <rect x="270" y="120" width="40" height="40" rx="8" fill="#93C5FD"/>
  <rect x="320" y="120" width="40" height="40" rx="8" fill="#BFDBFE"/>
  
  <!-- UI Elements -->
  <rect x="170" y="180" width="200" height="40" rx="8" fill="#F3F4F6"/>
  <rect x="180" y="190" width="180" height="20" rx="4" fill="#E5E7EB"/>
  
  <rect x="170" y="230" width="150" height="30" rx="6" fill="#E5E7EB"/>
  <rect x="180" y="240" width="130" height="10" rx="2" fill="#9CA3AF"/>
  
  <rect x="330" y="230" width="100" height="30" rx="6" fill="#E5E7EB"/>
  <rect x="340" y="240" width="80" height="10" rx="2" fill="#9CA3AF"/>
  
  <!-- Design Tools -->
  <rect x="450" y="120" width="180" height="40" rx="8" fill="#F3F4F6"/>
  <rect x="460" y="130" width="20" height="20" rx="4" fill="#3B82F6"/>
  <rect x="490" y="130" width="20" height="20" rx="4" fill="#60A5FA"/>
  <rect x="520" y="130" width="20" height="20" rx="4" fill="#93C5FD"/>
  <rect x="550" y="130" width="20" height="20" rx="4" fill="#BFDBFE"/>
  
  <!-- Floating Elements -->
  <rect x="450" y="180" width="180" height="100" rx="12" fill="url(#gradient3)" opacity="0.1"/>
  <circle cx="540" cy="230" r="30" fill="url(#gradient4)" opacity="0.1"/>
  
  <!-- Design Grid -->
  <rect x="450" y="180" width="180" height="100" rx="12" fill="none" stroke="#E5E7EB" stroke-width="1" stroke-dasharray="4 4"/>
  <line x1="540" y1="180" x2="540" y2="280" stroke="#E5E7EB" stroke-width="1" stroke-dasharray="4 4"/>
  <line x1="450" y1="230" x2="630" y2="230" stroke="#E5E7EB" stroke-width="1" stroke-dasharray="4 4"/>
  
  <!-- Decorative Elements -->
  <circle cx="100" cy="100" r="20" fill="url(#gradient5)" opacity="0.2"/>
  <circle cx="700" cy="300" r="30" fill="url(#gradient6)" opacity="0.2"/>
  
  <!-- Floating Icons -->
  <circle cx="200" cy="150" r="15" fill="url(#gradient7)" opacity="0.1"/>
  <circle cx="600" cy="250" r="15" fill="url(#gradient8)" opacity="0.1"/>
  <circle cx="250" cy="250" r="15" fill="url(#gradient9)" opacity="0.1"/>
  <circle cx="550" cy="150" r="15" fill="url(#gradient10)" opacity="0.1"/>
  
  <!-- Design Elements -->
  <rect x="480" y="200" width="40" height="40" rx="8" fill="#3B82F6" opacity="0.2"/>
  <rect x="530" y="220" width="40" height="40" rx="8" fill="#60A5FA" opacity="0.2"/>
  <rect x="580" y="200" width="40" height="40" rx="8" fill="#93C5FD" opacity="0.2"/>
  
  <!-- Gradients -->
  <defs>
    <linearGradient id="gradient1" x1="0" y1="0" x2="800" y2="400" gradientUnits="userSpaceOnUse">
      <stop offset="0%" stop-color="#3B82F6"/>
      <stop offset="100%" stop-color="#60A5FA"/>
    </linearGradient>
    <linearGradient id="gradient2" x1="0" y1="0" x2="800" y2="400" gradientUnits="userSpaceOnUse">
      <stop offset="0%" stop-color="#60A5FA"/>
      <stop offset="100%" stop-color="#93C5FD"/>
    </linearGradient>
    <linearGradient id="gradient3" x1="0" y1="0" x2="180" y2="100" gradientUnits="userSpaceOnUse">
      <stop offset="0%" stop-color="#3B82F6"/>
      <stop offset="100%" stop-color="#60A5FA"/>
    </linearGradient>
    <linearGradient id="gradient4" x1="0" y1="0" x2="60" y2="60" gradientUnits="userSpaceOnUse">
      <stop offset="0%" stop-color="#60A5FA"/>
      <stop offset="100%" stop-color="#93C5FD"/>
    </linearGradient>
    <linearGradient id="gradient5" x1="0" y1="0" x2="40" y2="40" gradientUnits="userSpaceOnUse">
      <stop offset="0%" stop-color="#3B82F6"/>
      <stop offset="100%" stop-color="#60A5FA"/>
    </linearGradient>
    <linearGradient id="gradient6" x1="0" y1="0" x2="60" y2="60" gradientUnits="userSpaceOnUse">
      <stop offset="0%" stop-color="#60A5FA"/>
      <stop offset="100%" stop-color="#93C5FD"/>
    </linearGradient>
    <linearGradient id="gradient7" x1="0" y1="0" x2="30" y2="30" gradientUnits="userSpaceOnUse">
      <stop offset="0%" stop-color="#3B82F6"/>
      <stop offset="100%" stop-color="#60A5FA"/>
    </linearGradient>
    <linearGradient id="gradient8" x1="0" y1="0" x2="30" y2="30" gradientUnits="userSpaceOnUse">
      <stop offset="0%" stop-color="#60A5FA"/>
      <stop offset="100%" stop-color="#93C5FD"/>
    </linearGradient>
    <linearGradient id="gradient9" x1="0" y1="0" x2="30" y2="30" gradientUnits="userSpaceOnUse">
      <stop offset="0%" stop-color="#3B82F6"/>
      <stop offset="100%" stop-color="#60A5FA"/>
    </linearGradient>
    <linearGradient id="gradient10" x1="0" y1="0" x2="30" y2="30" gradientUnits="userSpaceOnUse">
      <stop offset="0%" stop-color="#60A5FA"/>
      <stop offset="100%" stop-color="#93C5FD"/>
    </linearGradient>
  </defs>
</svg> 