<?xml version="1.0" encoding="UTF-8"?>
<svg width="256" height="154" viewBox="0 0 256 154" fill="none" xmlns="http://www.w3.org/2000/svg">
    <path d="M128 0C93.867 0 72.533 17.067 64 51.2C76.8 34.133 91.733 27.733 108.8 32C118.537 34.434 125.892 41.499 133.942 51.2C145.688 65.067 160.512 81.067 192 81.6C226.133 81.6 247.467 64.533 256 30.4C243.2 47.467 228.267 53.867 211.2 49.6C201.463 47.166 194.108 40.101 186.058 30.4C174.312 16.533 159.488 0.533 128 0ZM64 81.6C29.867 81.6 8.533 98.667 0 132.8C12.8 115.733 27.733 109.333 44.8 113.6C54.537 116.034 61.892 123.099 69.942 132.8C81.688 146.667 96.512 162.667 128 163.2C162.133 163.2 183.467 146.133 192 112C179.2 129.067 164.267 135.467 147.2 131.2C137.463 128.766 130.108 121.701 122.058 112C110.312 98.133 95.488 82.133 64 81.6Z" fill="url(#paint0_linear_87_0)"/>
    <defs>
        <linearGradient id="paint0_linear_87_0" x1="0" y1="0" x2="256" y2="163.2" gradientUnits="userSpaceOnUse">
            <stop stop-color="#2298BD"/>
            <stop offset="1" stop-color="#0ED7B5"/>
        </linearGradient>
    </defs>
</svg> 