<?xml version="1.0" encoding="UTF-8"?>
<svg width="800" height="600" viewBox="0 0 800 600" fill="none" xmlns="http://www.w3.org/2000/svg">
  <!-- Background Elements -->
  <circle cx="400" cy="300" r="250" fill="url(#gradient1)" opacity="0.15"/>
  <circle cx="400" cy="300" r="200" fill="url(#gradient2)" opacity="0.15"/>
  
  <!-- Animated Background Elements -->
  <circle cx="200" cy="150" r="50" fill="url(#gradient3)" opacity="0.1">
    <animate attributeName="r" values="50;60;50" dur="4s" repeatCount="indefinite"/>
  </circle>
  <circle cx="600" cy="450" r="40" fill="url(#gradient4)" opacity="0.1">
    <animate attributeName="r" values="40;50;40" dur="3s" repeatCount="indefinite"/>
  </circle>
  
  <!-- Main App Window -->
  <g filter="url(#shadow1)">
    <rect x="200" y="150" width="400" height="300" rx="20" fill="#1E293B"/>
    <!-- Glass Effect -->
    <rect x="200" y="150" width="400" height="300" rx="20" fill="url(#glass)" opacity="0.1"/>
  </g>
  
  <!-- App Header -->
  <rect x="200" y="150" width="400" height="60" rx="20" fill="#334155"/>
  <circle cx="230" cy="180" r="8" fill="#EF4444"/>
  <circle cx="260" cy="180" r="8" fill="#F59E0B"/>
  <circle cx="290" cy="180" r="8" fill="#10B981"/>
  
  <!-- App Content -->
  <g transform="translate(230, 230)">
    <!-- Search Bar -->
    <rect width="340" height="40" rx="8" fill="#475569"/>
    <circle cx="25" cy="20" r="8" fill="#94A3B8"/>
    <rect x="40" y="15" width="280" height="10" rx="5" fill="#94A3B8"/>
    
    <!-- Cards Grid -->
    <g transform="translate(0, 60)">
      <!-- Card 1 -->
      <g filter="url(#shadow2)">
        <rect width="160" height="120" rx="12" fill="#334155"/>
        <rect x="15" y="15" width="130" height="15" rx="4" fill="#3B82F6"/>
        <rect x="15" y="40" width="100" height="8" rx="4" fill="#94A3B8"/>
        <rect x="15" y="55" width="80" height="8" rx="4" fill="#94A3B8"/>
        <rect x="15" y="85" width="60" height="20" rx="10" fill="#3B82F6"/>
        <!-- Hover Effect -->
        <rect width="160" height="120" rx="12" fill="url(#hover)" opacity="0"/>
      </g>
      
      <!-- Card 2 -->
      <g transform="translate(170, 0)" filter="url(#shadow2)">
        <rect width="160" height="120" rx="12" fill="#334155"/>
        <rect x="15" y="15" width="130" height="15" rx="4" fill="#8B5CF6"/>
        <rect x="15" y="40" width="100" height="8" rx="4" fill="#94A3B8"/>
        <rect x="15" y="55" width="80" height="8" rx="4" fill="#94A3B8"/>
        <rect x="15" y="85" width="60" height="20" rx="10" fill="#8B5CF6"/>
        <!-- Hover Effect -->
        <rect width="160" height="120" rx="12" fill="url(#hover)" opacity="0"/>
      </g>
    </g>
  </g>
  
  <!-- Floating UI Elements -->
  <!-- Dashboard Card -->
  <g transform="translate(550, 100) rotate(15)" filter="url(#shadow3)">
    <rect width="140" height="100" rx="12" fill="white" fill-opacity="0.95"/>
    <rect x="15" y="15" width="110" height="12" rx="6" fill="#E2E8F0"/>
    <rect x="15" y="35" width="80" height="8" rx="4" fill="#E2E8F0"/>
    <rect x="15" y="50" width="90" height="8" rx="4" fill="#E2E8F0"/>
    <rect x="15" y="65" width="70" height="8" rx="4" fill="#E2E8F0"/>
    <rect x="15" y="80" width="100" height="8" rx="4" fill="#E2E8F0"/>
    <!-- Glow Effect -->
    <rect width="140" height="100" rx="12" fill="url(#glow)" opacity="0.5"/>
  </g>
  
  <!-- Code Window -->
  <g transform="translate(150, 400) rotate(-10)" filter="url(#shadow4)">
    <rect width="160" height="120" rx="12" fill="#1E293B"/>
    <rect x="10" y="10" width="140" height="12" rx="2" fill="#94A3B8"/>
    <rect x="10" y="30" width="120" height="12" rx="2" fill="#94A3B8"/>
    <rect x="10" y="50" width="130" height="12" rx="2" fill="#94A3B8"/>
    <rect x="10" y="70" width="110" height="12" rx="2" fill="#94A3B8"/>
    <rect x="10" y="90" width="100" height="12" rx="2" fill="#94A3B8"/>
    <!-- Code Highlight -->
    <rect x="10" y="50" width="130" height="12" rx="2" fill="#3B82F6" opacity="0.2"/>
  </g>
  
  <!-- Mobile App Preview -->
  <g transform="translate(600, 350) rotate(5)" filter="url(#shadow5)">
    <rect width="90" height="160" rx="20" fill="#1E293B"/>
    <rect x="10" y="10" width="70" height="25" rx="12" fill="#475569"/>
    <rect x="10" y="45" width="70" height="10" rx="5" fill="#475569"/>
    <rect x="10" y="65" width="70" height="10" rx="5" fill="#475569"/>
    <rect x="10" y="85" width="70" height="10" rx="5" fill="#475569"/>
    <rect x="10" y="105" width="70" height="10" rx="5" fill="#475569"/>
    <rect x="10" y="125" width="70" height="10" rx="5" fill="#475569"/>
    <!-- Screen Glow -->
    <rect width="90" height="160" rx="20" fill="url(#screenGlow)" opacity="0.3"/>
  </g>
  
  <!-- Connection Lines -->
  <path d="M400 300 L550 150" stroke="url(#gradient6)" stroke-width="2" stroke-dasharray="4 4">
    <animate attributeName="stroke-dashoffset" values="0;-8" dur="1s" repeatCount="indefinite"/>
  </path>
  <path d="M400 300 L300 450" stroke="url(#gradient7)" stroke-width="2" stroke-dasharray="4 4">
    <animate attributeName="stroke-dashoffset" values="0;-8" dur="1s" repeatCount="indefinite"/>
  </path>
  <path d="M400 300 L600 400" stroke="url(#gradient8)" stroke-width="2" stroke-dasharray="4 4">
    <animate attributeName="stroke-dashoffset" values="0;-8" dur="1s" repeatCount="indefinite"/>
  </path>
  
  <!-- Decorative Elements -->
  <circle cx="650" cy="200" r="30" fill="url(#gradient3)" opacity="0.6"/>
  <circle cx="200" cy="400" r="25" fill="url(#gradient4)" opacity="0.6"/>
  <circle cx="650" cy="450" r="20" fill="url(#gradient5)" opacity="0.6"/>
  
  <!-- Filters and Gradients -->
  <defs>
    <!-- Shadows -->
    <filter id="shadow1" x="190" y="140" width="420" height="320" filterUnits="userSpaceOnUse" color-interpolation-filters="sRGB">
      <feFlood flood-opacity="0" result="BackgroundImageFix"/>
      <feColorMatrix in="SourceAlpha" type="matrix" values="0 0 0 0 0 0 0 0 0 0 0 0 0 0 0 0 0 0 127 0" result="hardAlpha"/>
      <feOffset dy="4"/>
      <feGaussianBlur stdDeviation="5"/>
      <feComposite in2="hardAlpha" operator="out"/>
      <feColorMatrix type="matrix" values="0 0 0 0 0 0 0 0 0 0 0 0 0 0 0 0 0 0 0.25 0"/>
      <feBlend mode="normal" in2="BackgroundImageFix" result="effect1_dropShadow"/>
      <feBlend mode="normal" in="SourceGraphic" in2="effect1_dropShadow" result="shape"/>
    </filter>
    <filter id="shadow2" x="-10" y="-10" width="180" height="140" filterUnits="userSpaceOnUse" color-interpolation-filters="sRGB">
      <feFlood flood-opacity="0" result="BackgroundImageFix"/>
      <feColorMatrix in="SourceAlpha" type="matrix" values="0 0 0 0 0 0 0 0 0 0 0 0 0 0 0 0 0 0 127 0" result="hardAlpha"/>
      <feOffset dy="4"/>
      <feGaussianBlur stdDeviation="5"/>
      <feComposite in2="hardAlpha" operator="out"/>
      <feColorMatrix type="matrix" values="0 0 0 0 0 0 0 0 0 0 0 0 0 0 0 0 0 0 0.25 0"/>
      <feBlend mode="normal" in2="BackgroundImageFix" result="effect1_dropShadow"/>
      <feBlend mode="normal" in="SourceGraphic" in2="effect1_dropShadow" result="shape"/>
    </filter>
    <filter id="shadow3" x="545" y="90" width="150" height="120" filterUnits="userSpaceOnUse" color-interpolation-filters="sRGB">
      <feFlood flood-opacity="0" result="BackgroundImageFix"/>
      <feColorMatrix in="SourceAlpha" type="matrix" values="0 0 0 0 0 0 0 0 0 0 0 0 0 0 0 0 0 0 127 0" result="hardAlpha"/>
      <feOffset dy="4"/>
      <feGaussianBlur stdDeviation="5"/>
      <feComposite in2="hardAlpha" operator="out"/>
      <feColorMatrix type="matrix" values="0 0 0 0 0 0 0 0 0 0 0 0 0 0 0 0 0 0 0.25 0"/>
      <feBlend mode="normal" in2="BackgroundImageFix" result="effect1_dropShadow"/>
      <feBlend mode="normal" in="SourceGraphic" in2="effect1_dropShadow" result="shape"/>
    </filter>
    <filter id="shadow4" x="140" y="390" width="180" height="140" filterUnits="userSpaceOnUse" color-interpolation-filters="sRGB">
      <feFlood flood-opacity="0" result="BackgroundImageFix"/>
      <feColorMatrix in="SourceAlpha" type="matrix" values="0 0 0 0 0 0 0 0 0 0 0 0 0 0 0 0 0 0 127 0" result="hardAlpha"/>
      <feOffset dy="4"/>
      <feGaussianBlur stdDeviation="5"/>
      <feComposite in2="hardAlpha" operator="out"/>
      <feColorMatrix type="matrix" values="0 0 0 0 0 0 0 0 0 0 0 0 0 0 0 0 0 0 0.25 0"/>
      <feBlend mode="normal" in2="BackgroundImageFix" result="effect1_dropShadow"/>
      <feBlend mode="normal" in="SourceGraphic" in2="effect1_dropShadow" result="shape"/>
    </filter>
    <filter id="shadow5" x="590" y="340" width="110" height="180" filterUnits="userSpaceOnUse" color-interpolation-filters="sRGB">
      <feFlood flood-opacity="0" result="BackgroundImageFix"/>
      <feColorMatrix in="SourceAlpha" type="matrix" values="0 0 0 0 0 0 0 0 0 0 0 0 0 0 0 0 0 0 127 0" result="hardAlpha"/>
      <feOffset dy="4"/>
      <feGaussianBlur stdDeviation="5"/>
      <feComposite in2="hardAlpha" operator="out"/>
      <feColorMatrix type="matrix" values="0 0 0 0 0 0 0 0 0 0 0 0 0 0 0 0 0 0 0.25 0"/>
      <feBlend mode="normal" in2="BackgroundImageFix" result="effect1_dropShadow"/>
      <feBlend mode="normal" in="SourceGraphic" in2="effect1_dropShadow" result="shape"/>
    </filter>
    
    <!-- Gradients -->
    <linearGradient id="gradient1" x1="150" y1="50" x2="650" y2="550" gradientUnits="userSpaceOnUse">
      <stop stop-color="#3B82F6"/>
      <stop offset="1" stop-color="#8B5CF6"/>
    </linearGradient>
    <linearGradient id="gradient2" x1="200" y1="100" x2="600" y2="500" gradientUnits="userSpaceOnUse">
      <stop stop-color="#8B5CF6"/>
      <stop offset="1" stop-color="#EC4899"/>
    </linearGradient>
    <linearGradient id="gradient3" x1="150" y1="100" x2="250" y2="200" gradientUnits="userSpaceOnUse">
      <stop stop-color="#3B82F6"/>
      <stop offset="1" stop-color="#8B5CF6"/>
    </linearGradient>
    <linearGradient id="gradient4" x1="550" y1="400" x2="650" y2="500" gradientUnits="userSpaceOnUse">
      <stop stop-color="#8B5CF6"/>
      <stop offset="1" stop-color="#EC4899"/>
    </linearGradient>
    <linearGradient id="gradient5" x1="620" y1="420" x2="680" y2="480" gradientUnits="userSpaceOnUse">
      <stop stop-color="#3B82F6"/>
      <stop offset="1" stop-color="#EC4899"/>
    </linearGradient>
    <linearGradient id="gradient6" x1="400" y1="300" x2="550" y2="150" gradientUnits="userSpaceOnUse">
      <stop stop-color="#3B82F6"/>
      <stop offset="1" stop-color="#8B5CF6"/>
    </linearGradient>
    <linearGradient id="gradient7" x1="400" y1="300" x2="300" y2="450" gradientUnits="userSpaceOnUse">
      <stop stop-color="#8B5CF6"/>
      <stop offset="1" stop-color="#EC4899"/>
    </linearGradient>
    <linearGradient id="gradient8" x1="400" y1="300" x2="600" y2="400" gradientUnits="userSpaceOnUse">
      <stop stop-color="#3B82F6"/>
      <stop offset="1" stop-color="#EC4899"/>
    </linearGradient>
    
    <!-- Effects -->
    <linearGradient id="glass" x1="200" y1="150" x2="600" y2="450" gradientUnits="userSpaceOnUse">
      <stop stop-color="white" stop-opacity="0.1"/>
      <stop offset="1" stop-color="white" stop-opacity="0"/>
    </linearGradient>
    <linearGradient id="hover" x1="0" y1="0" x2="160" y2="120" gradientUnits="userSpaceOnUse">
      <stop stop-color="white" stop-opacity="0.1"/>
      <stop offset="1" stop-color="white" stop-opacity="0"/>
    </linearGradient>
    <linearGradient id="glow" x1="0" y1="0" x2="140" y2="100" gradientUnits="userSpaceOnUse">
      <stop stop-color="#3B82F6" stop-opacity="0.2"/>
      <stop offset="1" stop-color="#8B5CF6" stop-opacity="0"/>
    </linearGradient>
    <linearGradient id="screenGlow" x1="0" y1="0" x2="90" y2="160" gradientUnits="userSpaceOnUse">
      <stop stop-color="#3B82F6" stop-opacity="0.1"/>
      <stop offset="1" stop-color="#8B5CF6" stop-opacity="0"/>
    </linearGradient>
  </defs>
</svg> 